<svg width="99" height="109" viewBox="0 0 99 109" fill="none" xmlns="http://www.w3.org/2000/svg">
<rect x="0.436035" width="98" height="109" rx="5" fill="white"/>
<path d="M51.7 63.6501C51.3134 63.6501 51 63.3367 51 62.9501V49.7108C51 49.1139 51.6992 48.7909 52.1538 49.1778L58.958 54.9708C59.2174 55.1916 59.5981 55.1936 59.8598 54.9756L66.852 49.1517C67.308 48.772 68 49.0962 68 49.6896V62.9501C68 63.3367 67.6866 63.6501 67.3 63.6501H65.88C65.4934 63.6501 65.18 63.3367 65.18 62.9501V56.3624C65.18 55.7703 64.4905 55.4456 64.034 55.8229L59.8591 59.2735C59.5975 59.4897 59.2184 59.4871 58.9598 59.2673L54.9468 55.8561C54.4921 55.4697 53.7934 55.7928 53.7934 56.3895V62.9501C53.7934 63.3367 53.48 63.6501 53.0934 63.6501H51.7Z" fill="#2E2E2E"/>
<path d="M29 46.1953V44.4142L25.7731 47.5661L23 49.9836L29 48.1642V46.1953Z" fill="black"/>
<path d="M36.25 59.4143C36.25 58.7239 35.6904 58.1643 35 58.1643C34.3096 58.1643 33.75 58.7239 33.75 59.4143H36.25ZM23 49.9836L22.1786 49.0414C21.7344 49.4286 21.621 50.0736 21.9065 50.5891C22.192 51.1047 22.7988 51.3508 23.3627 51.1798L23 49.9836ZM25.7731 47.5661L26.5945 48.5083L26.6212 48.4851L26.6465 48.4603L25.7731 47.5661ZM32 62.4144L31.9965 61.1644L32 62.4144ZM30.25 32.5271C30.25 31.3014 31.0701 29.7821 32.7106 28.6575C34.314 27.5583 36.6018 26.9224 39.269 27.4239L39.731 24.9669C36.4084 24.3422 33.4462 25.1222 31.297 26.5955C29.185 28.0433 27.75 30.2529 27.75 32.5271H30.25ZM29 47.4453H38V44.9453H29V47.4453ZM30.25 46.1953V44.4142H27.75V46.1953H30.25ZM30.25 44.4142V32.5271H27.75V44.4142H30.25ZM30.25 59.4143V48.1642H27.75V59.4143H30.25ZM30.25 48.1642V46.1953H27.75V48.1642H30.25ZM23.3627 51.1798L29.3627 49.3604L28.6373 46.968L22.6373 48.7874L23.3627 51.1798ZM28.1266 43.52L24.8996 46.6719L26.6465 48.4603L29.8734 45.3084L28.1266 43.52ZM24.9517 46.6239L22.1786 49.0414L23.8214 50.9258L26.5945 48.5083L24.9517 46.6239ZM33.75 59.4143C33.75 60.1478 33.4721 60.5338 33.169 60.7683C32.8161 61.0413 32.3463 61.1634 31.9965 61.1644L32.0035 63.6644C32.8109 63.6621 33.8411 63.4092 34.6989 62.7455C35.6065 62.0433 36.25 60.9308 36.25 59.4143H33.75ZM31.9965 61.1644C31.6331 61.1654 31.1885 60.9788 30.8118 60.5986C30.4337 60.2171 30.25 59.7675 30.25 59.4143H27.75C27.75 60.5611 28.2982 61.6138 29.0361 62.3583C29.7753 63.1043 30.8307 63.6677 32.0035 63.6644L31.9965 61.1644Z" fill="black"/>
<path d="M69.75 62.3416C69.75 63.0319 70.3096 63.5916 71 63.5916C71.6904 63.5916 72.25 63.0319 72.25 62.3416H69.75ZM76.7198 48.3071C77.2312 47.8434 77.2699 47.0529 76.8062 46.5415C76.3425 46.0301 75.5519 45.9914 75.0405 46.4551L76.7198 48.3071ZM39.2709 27.4244C40.9486 27.7372 41.9966 28.237 42.7631 28.8295C43.5452 29.4341 44.1177 30.1964 44.7786 31.2021L46.8678 29.8291C46.1776 28.7789 45.4187 27.7224 44.2921 26.8516C43.1499 25.9687 41.7119 25.3365 39.7291 24.9667L39.2709 27.4244ZM44.7786 31.2021C46.4039 33.6754 46.8079 37.1761 45.7346 40.0203C44.6997 42.7628 42.2793 44.9456 38 44.9456V47.4456C43.3432 47.4456 46.6799 44.5964 48.0736 40.903C49.4289 37.3113 48.9332 32.972 46.8678 29.8291L44.7786 31.2021ZM46.3757 31.6369C56.6232 26.5876 69.6629 35.2745 69.6629 48.7463H72.1629C72.1629 33.8339 57.5343 23.3516 45.2707 29.3943L46.3757 31.6369ZM69.6629 48.7463C69.6629 51.0599 69.6848 53.2064 69.7065 55.3983C69.7283 57.5915 69.75 59.8315 69.75 62.3416H72.25C72.25 59.8176 72.2282 57.5663 72.2064 55.3735C72.1846 53.1795 72.1629 51.0454 72.1629 48.7463H69.6629ZM70.6653 49.9715C71.7309 50.1869 72.7337 50.3373 73.763 50.0896C74.8062 49.8386 75.7087 49.2239 76.7198 48.3071L75.0405 46.4551C74.1382 47.2732 73.6126 47.5544 73.1782 47.659C72.73 47.7668 72.2059 47.7323 71.1605 47.5211L70.6653 49.9715Z" fill="#D71920"/>
<path d="M28.5342 69.1956V65.5456H29.3792L29.7142 66.6956C29.7509 66.8156 29.7776 66.9206 29.7942 67.0106C29.8142 67.1006 29.8259 67.1639 29.8292 67.2006C29.8326 67.1639 29.8426 67.1006 29.8592 67.0106C29.8792 66.9206 29.9059 66.8156 29.9392 66.6956L30.2692 65.5456H31.1142V69.1956H30.4292V68.1956C30.4292 68.0122 30.4326 67.8206 30.4392 67.6206C30.4492 67.4172 30.4609 67.2156 30.4742 67.0156C30.4876 66.8156 30.5026 66.6289 30.5192 66.4556C30.5359 66.2789 30.5509 66.1256 30.5642 65.9956L30.1442 67.6456H29.5092L29.0692 65.9956C29.0859 66.1189 29.1026 66.2672 29.1192 66.4406C29.1359 66.6106 29.1509 66.7956 29.1642 66.9956C29.1809 67.1922 29.1942 67.3939 29.2042 67.6006C29.2142 67.8072 29.2192 68.0056 29.2192 68.1956V69.1956H28.5342ZM31.7223 69.1956V68.5456H32.4473V66.1956H31.7223V65.5456H33.9223V66.1956H33.1973V68.5456H33.9223V69.1956H31.7223ZM35.4453 69.1956V66.2456H34.5203V65.5456H37.1203V66.2456H36.1953V69.1956H35.4453ZM38.8184 69.2456C38.5617 69.2456 38.3384 69.2022 38.1484 69.1156C37.9584 69.0289 37.8117 68.9072 37.7084 68.7506C37.605 68.5939 37.5534 68.4089 37.5534 68.1956H38.3034C38.3034 68.3189 38.35 68.4172 38.4434 68.4906C38.54 68.5606 38.67 68.5956 38.8334 68.5956C38.99 68.5956 39.1117 68.5606 39.1984 68.4906C39.2884 68.4206 39.3334 68.3239 39.3334 68.2006C39.3334 68.0939 39.3 68.0022 39.2334 67.9256C39.1667 67.8489 39.0734 67.7972 38.9534 67.7706L38.5834 67.6856C38.2734 67.6122 38.0317 67.4772 37.8584 67.2806C37.6884 67.0806 37.6034 66.8372 37.6034 66.5506C37.6034 66.3372 37.6517 66.1522 37.7484 65.9956C37.8484 65.8356 37.9884 65.7122 38.1684 65.6256C38.3484 65.5389 38.5617 65.4956 38.8084 65.4956C39.1817 65.4956 39.4767 65.5889 39.6934 65.7756C39.9134 65.9589 40.0234 66.2072 40.0234 66.5206H39.2734C39.2734 66.4039 39.2317 66.3122 39.1484 66.2456C39.0684 66.1789 38.9517 66.1456 38.7984 66.1456C38.655 66.1456 38.545 66.1789 38.4684 66.2456C38.3917 66.3089 38.3534 66.4006 38.3534 66.5206C38.3534 66.6272 38.3834 66.7189 38.4434 66.7956C38.5067 66.8689 38.595 66.9189 38.7084 66.9456L39.0984 67.0356C39.4217 67.1089 39.6667 67.2422 39.8334 67.4356C40 67.6256 40.0834 67.8689 40.0834 68.1656C40.0834 68.3789 40.03 68.5672 39.9234 68.7306C39.82 68.8939 39.6734 69.0206 39.4834 69.1106C39.2967 69.2006 39.075 69.2456 38.8184 69.2456Z" fill="#D71920"/>
<circle cx="35.75" cy="36.75" r="1.75" fill="black"/>
<path d="M28.05 83.1956V72.2456H35.1V74.3456H30.27V76.7756H34.71V78.8756H30.3V83.1956H28.05ZM40.4941 83.3456C39.7641 83.3456 39.1291 83.2106 38.5891 82.9406C38.0491 82.6606 37.6291 82.2756 37.3291 81.7856C37.0391 81.2856 36.8941 80.7056 36.8941 80.0456V75.3956C36.8941 74.7356 37.0391 74.1606 37.3291 73.6706C37.6291 73.1706 38.0491 72.7856 38.5891 72.5156C39.1291 72.2356 39.7641 72.0956 40.4941 72.0956C41.2341 72.0956 41.8691 72.2356 42.3991 72.5156C42.9391 72.7856 43.3541 73.1706 43.6441 73.6706C43.9441 74.1606 44.0941 74.7356 44.0941 75.3956V80.0456C44.0941 80.7056 43.9441 81.2856 43.6441 81.7856C43.3541 82.2756 42.9391 82.6606 42.3991 82.9406C41.8691 83.2106 41.2341 83.3456 40.4941 83.3456ZM40.4941 81.3956C40.9441 81.3956 41.2791 81.2806 41.4991 81.0506C41.7291 80.8106 41.8441 80.4756 41.8441 80.0456V75.3956C41.8441 74.9556 41.7341 74.6206 41.5141 74.3906C41.2941 74.1606 40.9541 74.0456 40.4941 74.0456C40.0341 74.0456 39.6941 74.1606 39.4741 74.3906C39.2541 74.6206 39.1441 74.9556 39.1441 75.3956V80.0456C39.1441 80.4756 39.2541 80.8106 39.4741 81.0506C39.7041 81.2806 40.0441 81.3956 40.4941 81.3956ZM49.4883 83.3456C48.7183 83.3456 48.0483 83.2156 47.4783 82.9556C46.9083 82.6956 46.4683 82.3306 46.1583 81.8606C45.8483 81.3906 45.6933 80.8356 45.6933 80.1956H47.9433C47.9433 80.5656 48.0833 80.8606 48.3633 81.0806C48.6533 81.2906 49.0433 81.3956 49.5333 81.3956C50.0033 81.3956 50.3683 81.2906 50.6283 81.0806C50.8983 80.8706 51.0333 80.5806 51.0333 80.2106C51.0333 79.8906 50.9333 79.6156 50.7333 79.3856C50.5333 79.1556 50.2533 79.0006 49.8933 78.9206L48.7833 78.6656C47.8533 78.4456 47.1283 78.0406 46.6083 77.4506C46.0983 76.8506 45.8433 76.1206 45.8433 75.2606C45.8433 74.6206 45.9883 74.0656 46.2783 73.5956C46.5783 73.1156 46.9983 72.7456 47.5383 72.4856C48.0783 72.2256 48.7183 72.0956 49.4583 72.0956C50.5783 72.0956 51.4633 72.3756 52.1133 72.9356C52.7733 73.4856 53.1033 74.2306 53.1033 75.1706H50.8533C50.8533 74.8206 50.7283 74.5456 50.4783 74.3456C50.2383 74.1456 49.8883 74.0456 49.4283 74.0456C48.9983 74.0456 48.6683 74.1456 48.4383 74.3456C48.2083 74.5356 48.0933 74.8106 48.0933 75.1706C48.0933 75.4906 48.1833 75.7656 48.3633 75.9956C48.5533 76.2156 48.8183 76.3656 49.1583 76.4456L50.3283 76.7156C51.2983 76.9356 52.0333 77.3356 52.5333 77.9156C53.0333 78.4856 53.2833 79.2156 53.2833 80.1056C53.2833 80.7456 53.1233 81.3106 52.8033 81.8006C52.4933 82.2906 52.0533 82.6706 51.4833 82.9406C50.9233 83.2106 50.2583 83.3456 49.4883 83.3456ZM58.4824 83.3456C57.7124 83.3456 57.0424 83.2156 56.4724 82.9556C55.9024 82.6956 55.4624 82.3306 55.1524 81.8606C54.8424 81.3906 54.6874 80.8356 54.6874 80.1956H56.9374C56.9374 80.5656 57.0774 80.8606 57.3574 81.0806C57.6474 81.2906 58.0374 81.3956 58.5274 81.3956C58.9974 81.3956 59.3624 81.2906 59.6224 81.0806C59.8924 80.8706 60.0274 80.5806 60.0274 80.2106C60.0274 79.8906 59.9274 79.6156 59.7274 79.3856C59.5274 79.1556 59.2474 79.0006 58.8874 78.9206L57.7774 78.6656C56.8474 78.4456 56.1224 78.0406 55.6024 77.4506C55.0924 76.8506 54.8374 76.1206 54.8374 75.2606C54.8374 74.6206 54.9824 74.0656 55.2724 73.5956C55.5724 73.1156 55.9924 72.7456 56.5324 72.4856C57.0724 72.2256 57.7124 72.0956 58.4524 72.0956C59.5724 72.0956 60.4574 72.3756 61.1074 72.9356C61.7674 73.4856 62.0974 74.2306 62.0974 75.1706H59.8474C59.8474 74.8206 59.7224 74.5456 59.4724 74.3456C59.2324 74.1456 58.8824 74.0456 58.4224 74.0456C57.9924 74.0456 57.6624 74.1456 57.4324 74.3456C57.2024 74.5356 57.0874 74.8106 57.0874 75.1706C57.0874 75.4906 57.1774 75.7656 57.3574 75.9956C57.5474 76.2156 57.8124 76.3656 58.1524 76.4456L59.3224 76.7156C60.2924 76.9356 61.0274 77.3356 61.5274 77.9156C62.0274 78.4856 62.2774 79.2156 62.2774 80.1056C62.2774 80.7456 62.1174 81.3106 61.7974 81.8006C61.4874 82.2906 61.0474 82.6706 60.4774 82.9406C59.9174 83.2106 59.2524 83.3456 58.4824 83.3456Z" fill="black"/>
</svg>
