<svg width="127" height="105" viewBox="0 0 127 105" fill="none" xmlns="http://www.w3.org/2000/svg">
<g filter="url(#filter0_d_207_9)">
<path fill-rule="evenodd" clip-rule="evenodd" d="M52.16 25.9236C44.065 25.9236 37.5029 19.3616 37.5029 11.2669V0H63.416V25.9236H52.16ZM43.527 12.9618H59.3049C59.5199 15.4851 58.308 20.5317 51.739 20.5317C45.169 20.5317 43.527 15.4851 43.527 12.9618Z" fill="#C8C7C7"/>
<path fill-rule="evenodd" clip-rule="evenodd" d="M74.6949 25.9233C82.7899 25.9233 89.3519 32.4853 89.3519 40.58V51.847H63.439V25.9233H74.6949ZM82.91 39.2127C82.994 40.2014 82.554 41.6883 81.512 42.9325C80.482 44.1622 78.8809 45.1341 76.6619 45.1341C74.6719 45.1341 72.967 44.1655 71.752 42.9124C70.523 41.6466 69.853 40.1534 69.853 39.1813H69.114C69.114 40.4154 69.9169 42.0833 71.2209 43.4271C72.5369 44.7837 74.4219 45.8732 76.6619 45.8732C79.1219 45.8732 80.9229 44.787 82.0779 43.4071C83.2219 42.0417 83.7499 40.3673 83.6459 39.15L82.91 39.2127Z" fill="#C8C7C7"/>
<path fill-rule="evenodd" clip-rule="evenodd" d="M89.3519 25.9236H78.0959C70.0009 25.9236 63.439 19.3616 63.439 11.267V0H89.3519V25.9236ZM70.2939 8.6266C69.9109 9.0835 69.7579 9.6201 69.7869 9.9546L69.186 10.0059C69.142 9.4845 69.366 8.7947 69.832 8.2392C70.309 7.6717 71.052 7.2261 72.059 7.2261C72.983 7.2261 73.754 7.6744 74.288 8.2228C74.811 8.7608 75.152 9.4453 75.152 9.9803H74.549C74.549 9.6594 74.317 9.1175 73.856 8.643C73.404 8.1789 72.78 7.8288 72.059 7.8288C71.247 7.8288 70.6669 8.1816 70.2939 8.6266ZM79.025 9.9547C78.996 9.6198 79.148 9.083 79.53 8.6262C79.902 8.1812 80.4789 7.8288 81.2869 7.8288C82.0039 7.8288 82.626 8.1785 83.075 8.6425C83.535 9.1169 83.7659 9.6589 83.7659 9.9802H84.369C84.369 9.4457 84.0299 8.7613 83.5079 8.2232C82.9769 7.6748 82.2079 7.2261 81.2869 7.2261C80.2829 7.2261 79.5419 7.6721 79.0679 8.2396C78.6029 8.7952 78.38 9.4848 78.424 10.0058L79.025 9.9547Z" fill="white"/>
<path fill-rule="evenodd" clip-rule="evenodd" d="M48.7599 25.9233H37.5029V51.847H63.416V40.58C63.416 32.4853 56.8539 25.9233 48.7599 25.9233ZM57.4979 36.4643C57.4979 37.8014 56.4149 38.8854 55.0779 38.8854C53.7419 38.8854 52.658 37.8014 52.658 36.4643C52.658 35.1271 53.7419 34.0432 55.0779 34.0432C56.4149 34.0432 57.4979 35.1271 57.4979 36.4643ZM48.368 36.4643C48.368 37.8014 47.2839 38.8854 45.9479 38.8854C44.6109 38.8854 43.527 37.8014 43.527 36.4643C43.527 35.1271 44.6109 34.0432 45.9479 34.0432C47.2839 34.0432 48.368 35.1271 48.368 36.4643Z" fill="white"/>
<path d="M4 80.2169V62.1174H15.984V65.2725H7.82703V69.5852H15.189V72.7402H7.82703V80.2169H4ZM34.195 71.1671C34.195 73.1409 33.821 74.8199 33.073 76.2049C32.33 77.5889 31.317 78.6469 30.032 79.3769C28.754 80.1019 27.316 80.4639 25.72 80.4639C24.111 80.4639 22.668 80.0989 21.389 79.3689C20.111 78.6379 19.1 77.5799 18.358 76.1959C17.616 74.8109 17.244 73.135 17.244 71.1671C17.244 69.1934 17.616 67.5143 18.358 66.1297C19.1 64.7451 20.111 63.6905 21.389 62.9658C22.668 62.2353 24.111 61.87 25.72 61.87C27.316 61.87 28.754 62.2353 30.032 62.9658C31.317 63.6905 32.33 64.7451 33.073 66.1297C33.821 67.5143 34.195 69.1934 34.195 71.1671ZM30.315 71.1671C30.315 69.8886 30.124 68.8104 29.741 67.9326C29.364 67.0547 28.831 66.3889 28.141 65.9353C27.452 65.4816 26.645 65.2548 25.72 65.2548C24.795 65.2548 23.988 65.4816 23.298 65.9353C22.609 66.3889 22.073 67.0547 21.69 67.9326C21.313 68.8104 21.124 69.8886 21.124 71.1671C21.124 72.4456 21.313 73.5238 21.69 74.4019C22.073 75.2799 22.609 75.9449 23.298 76.3989C23.988 76.8529 24.795 77.0799 25.72 77.0799C26.645 77.0799 27.452 76.8529 28.141 76.3989C28.831 75.9449 29.364 75.2799 29.741 74.4019C30.124 73.5238 30.315 72.4456 30.315 71.1671ZM45.853 67.3228C45.782 66.6099 45.479 66.0561 44.943 65.6613C44.406 65.2666 43.679 65.0692 42.76 65.0692C42.135 65.0692 41.608 65.1576 41.178 65.3343C40.748 65.5052 40.418 65.7438 40.188 66.0502C39.964 66.3565 39.852 66.7041 39.852 67.093C39.84 67.417 39.908 67.6998 40.055 67.9414C40.208 68.183 40.418 68.3921 40.683 68.5689C40.948 68.7397 41.254 68.89 41.602 69.0196C41.95 69.1433 42.321 69.2494 42.715 69.3378L44.342 69.7266C45.131 69.9034 45.856 70.139 46.516 70.4336C47.175 70.7282 47.747 71.0905 48.23 71.5206C48.713 71.9507 49.087 72.4574 49.352 73.0407C49.623 73.624 49.762 74.2929 49.768 75.0469C49.762 76.1549 49.479 77.1149 48.919 77.9279C48.366 78.7349 47.564 79.3629 46.516 79.8099C45.473 80.2519 44.215 80.4729 42.742 80.4729C41.281 80.4729 40.008 80.2489 38.924 79.8019C37.846 79.3539 37.003 78.6909 36.397 77.8129C35.796 76.9289 35.48 75.8359 35.451 74.5339H39.154C39.195 75.1409 39.369 75.6479 39.675 76.0539C39.988 76.4549 40.403 76.7589 40.921 76.9649C41.446 77.1649 42.038 77.2649 42.698 77.2649C43.346 77.2649 43.909 77.1709 44.386 76.9819C44.869 76.7939 45.243 76.5319 45.508 76.1959C45.773 75.8599 45.906 75.4739 45.906 75.0379C45.906 74.6319 45.785 74.2899 45.543 74.0128C45.308 73.7359 44.96 73.5003 44.501 73.3058C44.047 73.1114 43.49 72.9347 42.83 72.7756L40.86 72.2807C39.334 71.9095 38.129 71.3292 37.245 70.5397C36.361 69.7502 35.922 68.6867 35.928 67.3493C35.922 66.2534 36.214 65.296 36.803 64.4771C37.398 63.6581 38.214 63.0189 39.251 62.5593C40.288 62.0997 41.466 61.87 42.786 61.87C44.129 61.87 45.302 62.0997 46.304 62.5593C47.311 63.0189 48.095 63.6581 48.654 64.4771C49.214 65.296 49.503 66.2446 49.52 67.3228H45.853ZM61.165 67.3228C61.094 66.6099 60.791 66.0561 60.255 65.6613C59.718 65.2666 58.991 65.0692 58.072 65.0692C57.447 65.0692 56.92 65.1576 56.49 65.3343C56.06 65.5052 55.73 65.7438 55.5 66.0502C55.276 66.3565 55.164 66.7041 55.164 67.093C55.152 67.417 55.22 67.6998 55.367 67.9414C55.521 68.183 55.73 68.3921 55.995 68.5689C56.26 68.7397 56.566 68.89 56.914 69.0196C57.262 69.1433 57.633 69.2494 58.028 69.3378L59.654 69.7266C60.443 69.9034 61.168 70.139 61.828 70.4336C62.488 70.7282 63.059 71.0905 63.542 71.5206C64.025 71.9507 64.399 72.4574 64.665 73.0407C64.936 73.624 65.074 74.2929 65.08 75.0469C65.074 76.1549 64.791 77.1149 64.232 77.9279C63.678 78.7349 62.876 79.3629 61.828 79.8099C60.785 80.2519 59.527 80.4729 58.054 80.4729C56.593 80.4729 55.32 80.2489 54.236 79.8019C53.158 79.3539 52.316 78.6909 51.709 77.8129C51.108 76.9289 50.793 75.8359 50.763 74.5339H54.466C54.507 75.1409 54.681 75.6479 54.987 76.0539C55.3 76.4549 55.715 76.7589 56.234 76.9649C56.758 77.1649 57.35 77.2649 58.01 77.2649C58.658 77.2649 59.221 77.1709 59.698 76.9819C60.181 76.7939 60.555 76.5319 60.82 76.1959C61.085 75.8599 61.218 75.4739 61.218 75.0379C61.218 74.6319 61.097 74.2899 60.856 74.0128C60.62 73.7359 60.272 73.5003 59.813 73.3058C59.359 73.1114 58.802 72.9347 58.142 72.7756L56.172 72.2807C54.646 71.9095 53.441 71.3292 52.557 70.5397C51.673 69.7502 51.234 68.6867 51.24 67.3493C51.234 66.2534 51.526 65.296 52.115 64.4771C52.71 63.6581 53.526 63.0189 54.563 62.5593C55.6 62.0997 56.779 61.87 58.098 61.87C59.442 61.87 60.614 62.0997 61.616 62.5593C62.623 63.0189 63.407 63.6581 63.966 64.4771C64.526 65.296 64.815 66.2446 64.833 67.3228H61.165ZM87.392 68.454H83.522C83.451 67.9532 83.307 67.5084 83.089 67.1195C82.871 66.7248 82.591 66.3889 82.249 66.112C81.907 65.8351 81.513 65.623 81.065 65.4757C80.623 65.3284 80.143 65.2548 79.624 65.2548C78.687 65.2548 77.871 65.4875 77.176 65.9529C76.481 66.4125 75.942 67.0842 75.559 67.9679C75.176 68.8458 74.984 69.9122 74.984 71.1671C74.984 72.4574 75.176 73.5415 75.559 74.4189C75.948 75.2969 76.49 75.9599 77.185 76.4079C77.88 76.8559 78.684 77.0799 79.598 77.0799C80.11 77.0799 80.585 77.0119 81.021 76.8759C81.462 76.7409 81.854 76.5429 82.196 76.2839C82.538 76.0189 82.82 75.6979 83.044 75.3209C83.274 74.9439 83.433 74.5139 83.522 74.0305L87.392 74.0482C87.292 74.8789 87.042 75.6799 86.641 76.4519C86.247 77.2179 85.713 77.9039 85.042 78.5109C84.376 79.1119 83.581 79.5889 82.656 79.9429C81.736 80.2909 80.697 80.4639 79.536 80.4639C77.921 80.4639 76.478 80.0989 75.205 79.3689C73.939 78.6379 72.937 77.5799 72.201 76.1959C71.47 74.8109 71.105 73.135 71.105 71.1671C71.105 69.1934 71.476 67.5143 72.218 66.1297C72.961 64.7451 73.968 63.6905 75.241 62.9658C76.513 62.2353 77.945 61.87 79.536 61.87C80.585 61.87 81.557 62.0173 82.452 62.3119C83.354 62.6064 84.152 63.0365 84.847 63.6021C85.542 64.1619 86.108 64.8482 86.544 65.6613C86.986 66.4744 87.269 67.4053 87.392 68.454ZM92.835 62.1174V80.2169H89.07V62.1174H92.835ZM103.561 74.4369V66.6423H107.325V80.2169H103.711V77.7509H103.569C103.263 78.5469 102.753 79.1859 102.041 79.6689C101.334 80.1519 100.47 80.3939 99.451 80.3939C98.544 80.3939 97.745 80.1869 97.056 79.7749C96.367 79.3629 95.828 78.7759 95.439 78.0159C95.056 77.2559 94.861 76.3459 94.856 75.2859V66.6423H98.62V74.6139C98.626 75.4149 98.841 76.0489 99.266 76.5139C99.69 76.9789 100.258 77.2119 100.971 77.2119C101.425 77.2119 101.849 77.1089 102.244 76.9029C102.639 76.6909 102.957 76.3779 103.198 75.9659C103.446 75.5539 103.567 75.0439 103.561 74.4369ZM109.412 80.2169V62.1174H113.177V68.9224H113.292C113.457 68.5571 113.695 68.1859 114.008 67.8088C114.326 67.4259 114.738 67.1077 115.245 66.8544C115.757 66.5951 116.394 66.4655 117.154 66.4655C118.144 66.4655 119.057 66.7248 119.893 67.2432C120.73 67.7558 121.399 68.5306 121.9 69.5675C122.4 70.5986 122.651 71.8918 122.651 73.4472C122.651 74.9619 122.406 76.2399 121.917 77.2829C121.434 78.3199 120.774 79.1059 119.938 79.6429C119.107 80.1729 118.176 80.4379 117.145 80.4379C116.414 80.4379 115.793 80.3169 115.28 80.0759C114.774 79.8339 114.358 79.5309 114.034 79.1649C113.71 78.7939 113.463 78.4199 113.292 78.0429H113.124V80.2169H109.412ZM113.097 73.4296C113.097 74.2369 113.209 74.9409 113.433 75.5419C113.657 76.1429 113.981 76.6109 114.405 76.9469C114.83 77.2769 115.345 77.4419 115.952 77.4419C116.565 77.4419 117.083 77.2739 117.507 76.9379C117.932 76.5959 118.253 76.1249 118.471 75.5239C118.695 74.9169 118.806 74.2189 118.806 73.4296C118.806 72.646 118.697 71.9566 118.479 71.3616C118.261 70.7665 117.94 70.3011 117.516 69.9652C117.092 69.6294 116.571 69.4615 115.952 69.4615C115.339 69.4615 114.821 69.6235 114.397 69.9475C113.978 70.2716 113.657 70.7312 113.433 71.3262C113.209 71.9213 113.097 72.6224 113.097 73.4296Z" fill="white"/>
<path d="M48.5499 90.8988C48.4749 90.6598 48.372 90.4468 48.244 90.2578C48.118 90.0668 47.9679 89.9048 47.7919 89.7708C47.6169 89.6348 47.417 89.5318 47.191 89.4608C46.969 89.3898 46.724 89.3548 46.457 89.3548C46.004 89.3548 45.595 89.4718 45.231 89.7048C44.867 89.9378 44.5789 90.2788 44.3669 90.7298C44.1579 91.1778 44.053 91.7258 44.053 92.3758C44.053 93.0278 44.159 93.5788 44.371 94.0288C44.583 94.4798 44.874 94.8208 45.243 95.0538C45.612 95.2868 46.033 95.4038 46.504 95.4038C46.941 95.4038 47.322 95.3148 47.647 95.1368C47.974 94.9588 48.227 94.7068 48.405 94.3828C48.586 94.0548 48.676 93.6698 48.676 93.2278L48.9899 93.2868H46.689V92.2848H49.851V93.1998C49.851 93.8758 49.7069 94.4618 49.4189 94.9598C49.1329 95.4548 48.7379 95.8368 48.2319 96.1068C47.7299 96.3768 47.153 96.5118 46.504 96.5118C45.776 96.5118 45.137 96.3438 44.587 96.0088C44.04 95.6738 43.6129 95.1978 43.3069 94.5828C42.9999 93.9648 42.8469 93.2318 42.8469 92.3828C42.8469 91.7418 42.936 91.1658 43.114 90.6548C43.292 90.1438 43.5429 89.7108 43.8649 89.3548C44.1889 88.9958 44.5699 88.7228 45.0079 88.5338C45.4479 88.3428 45.928 88.2468 46.449 88.2468C46.884 88.2468 47.288 88.3118 47.663 88.4398C48.04 88.5678 48.375 88.7498 48.668 88.9858C48.964 89.2208 49.209 89.5018 49.403 89.8258C49.597 90.1478 49.728 90.5058 49.796 90.8988H48.5499ZM50.949 96.4018V88.3568H55.9919V89.4018H52.163V91.8528H55.7289V92.8938H52.163V95.3568H56.0389V96.4018H50.949ZM63.8519 90.9728H62.627C62.58 90.7108 62.492 90.4808 62.364 90.2818C62.235 90.0828 62.078 89.9138 61.892 89.7748C61.706 89.6358 61.4979 89.5318 61.2679 89.4608C61.0399 89.3898 60.798 89.3548 60.541 89.3548C60.078 89.3548 59.663 89.4718 59.296 89.7048C58.932 89.9378 58.6439 90.2788 58.4319 90.7298C58.2219 91.1798 58.118 91.7298 58.118 92.3788C58.118 93.0338 58.2219 93.5868 58.4319 94.0368C58.6439 94.4868 58.9329 94.8278 59.2999 95.0578C59.6659 95.2888 60.0789 95.4038 60.5369 95.4038C60.7909 95.4038 61.0319 95.3698 61.2599 95.3018C61.4899 95.2308 61.698 95.1278 61.884 94.9908C62.07 94.8548 62.227 94.6888 62.356 94.4928C62.487 94.2938 62.577 94.0658 62.627 93.8088L63.8519 93.8128C63.7869 94.2078 63.6599 94.5718 63.4709 94.9048C63.2849 95.2348 63.046 95.5198 62.752 95.7608C62.462 95.9998 62.1289 96.1838 61.7549 96.3148C61.3799 96.4458 60.9719 96.5118 60.5289 96.5118C59.8329 96.5118 59.2119 96.3468 58.6669 96.0168C58.1229 95.6838 57.693 95.2088 57.379 94.5908C57.068 93.9728 56.9119 93.2358 56.9119 92.3788C56.9119 91.5208 57.0689 90.7828 57.3829 90.1678C57.6969 89.5498 58.127 89.0758 58.671 88.7458C59.216 88.4138 59.8349 88.2468 60.5289 88.2468C60.9559 88.2468 61.354 88.3088 61.723 88.4318C62.095 88.5518 62.429 88.7298 62.725 88.9658C63.021 89.1988 63.2659 89.4848 63.4589 89.8218C63.6529 90.1578 63.7839 90.5408 63.8519 90.9728ZM69.249 90.4708C69.208 90.0988 69.035 89.8108 68.731 89.6058C68.427 89.3998 68.0449 89.2958 67.5839 89.2958C67.2539 89.2958 66.969 89.3478 66.728 89.4528C66.487 89.5548 66.3 89.6968 66.166 89.8768C66.035 90.0548 65.97 90.2578 65.97 90.4858C65.97 90.6768 66.014 90.8418 66.103 90.9808C66.195 91.1198 66.3139 91.2358 66.4609 91.3308C66.6099 91.4218 66.7699 91.4998 66.9399 91.5618C67.1099 91.6228 67.274 91.6718 67.431 91.7118L68.2159 91.9158C68.4729 91.9788 68.7359 92.0638 69.0059 92.1708C69.2759 92.2788 69.5259 92.4198 69.7559 92.5948C69.9869 92.7708 70.173 92.9878 70.314 93.2468C70.458 93.5068 70.53 93.8168 70.53 94.1778C70.53 94.6338 70.412 95.0388 70.176 95.3918C69.943 95.7458 69.6039 96.0238 69.1589 96.2288C68.7169 96.4328 68.181 96.5348 67.553 96.5348C66.95 96.5348 66.429 96.4388 65.989 96.2478C65.549 96.0568 65.2049 95.7858 64.9559 95.4348C64.7079 95.0818 64.5699 94.6628 64.5439 94.1778H65.762C65.785 94.4688 65.8789 94.7108 66.0439 94.9048C66.2119 95.0958 66.4249 95.2388 66.6849 95.3328C66.9459 95.4248 67.2329 95.4708 67.5449 95.4708C67.8879 95.4708 68.193 95.4168 68.46 95.3098C68.73 95.1998 68.9419 95.0478 69.0959 94.8538C69.2509 94.6578 69.3279 94.4278 69.3279 94.1668C69.3279 93.9278 69.26 93.7328 69.124 93.5808C68.99 93.4288 68.8079 93.3038 68.5779 93.2038C68.3499 93.1048 68.092 93.0168 67.804 92.9408L66.853 92.6818C66.209 92.5058 65.699 92.2488 65.322 91.9078C64.947 91.5678 64.7599 91.1168 64.7599 90.5568C64.7599 90.0928 64.886 89.6888 65.137 89.3428C65.388 88.9978 65.729 88.7288 66.158 88.5378C66.588 88.3438 67.0719 88.2468 67.6119 88.2468C68.1559 88.2468 68.637 88.3428 69.053 88.5338C69.472 88.7248 69.802 88.9878 70.043 89.3238C70.284 89.6558 70.4089 90.0378 70.4199 90.4708H69.249ZM71.538 96.4018V88.3568H72.752V92.1988H72.85L76.2239 88.3568H77.752L74.507 91.9788L77.7629 96.4018H76.3019L73.702 92.8078L72.752 93.8988V96.4018H71.538ZM78.4399 96.4018V88.3568H81.3079C81.9339 88.3568 82.452 88.4708 82.863 88.6988C83.274 88.9268 83.5819 89.2378 83.7859 89.6338C83.9899 90.0268 84.093 90.4688 84.093 90.9608C84.093 91.4558 83.9889 91.9018 83.7819 92.2968C83.5779 92.6898 83.269 93.0008 82.855 93.2318C82.444 93.4598 81.927 93.5728 81.304 93.5728H79.332V92.5438H81.194C81.589 92.5438 81.9099 92.4758 82.1559 92.3398C82.4019 92.2008 82.5829 92.0128 82.6979 91.7748C82.8129 91.5358 82.871 91.2648 82.871 90.9608C82.871 90.6578 82.8129 90.3878 82.6979 90.1518C82.5829 89.9168 82.401 89.7318 82.152 89.5988C81.906 89.4648 81.581 89.3978 81.178 89.3978H79.6539V96.4018H78.4399Z" fill="white"/>
</g>
<defs>
<filter id="filter0_d_207_9" x="0" y="0" width="126.651" height="104.535" filterUnits="userSpaceOnUse" color-interpolation-filters="sRGB">
<feFlood flood-opacity="0" result="BackgroundImageFix"/>
<feColorMatrix in="SourceAlpha" type="matrix" values="0 0 0 0 0 0 0 0 0 0 0 0 0 0 0 0 0 0 127 0" result="hardAlpha"/>
<feOffset dy="4"/>
<feGaussianBlur stdDeviation="2"/>
<feComposite in2="hardAlpha" operator="out"/>
<feColorMatrix type="matrix" values="0 0 0 0 0 0 0 0 0 0 0 0 0 0 0 0 0 0 0.25 0"/>
<feBlend mode="normal" in2="BackgroundImageFix" result="effect1_dropShadow_207_9"/>
<feBlend mode="normal" in="SourceGraphic" in2="effect1_dropShadow_207_9" result="shape"/>
</filter>
</defs>
</svg>
