<svg width="119" height="97" viewBox="0 0 119 97" fill="none" xmlns="http://www.w3.org/2000/svg">
<path fill-rule="evenodd" clip-rule="evenodd" d="M48.16 25.9236C40.065 25.9236 33.5029 19.3616 33.5029 11.2669V0H59.416V25.9236H48.16ZM39.527 12.9618H55.3049C55.5199 15.4851 54.308 20.5317 47.739 20.5317C41.169 20.5317 39.527 15.4851 39.527 12.9618Z" fill="#1A1A1A"/>
<path fill-rule="evenodd" clip-rule="evenodd" d="M70.6949 25.9233C78.7899 25.9233 85.3519 32.4853 85.3519 40.58V51.847H59.439V25.9233H70.6949ZM78.91 39.2127C78.994 40.2014 78.554 41.6883 77.512 42.9325C76.482 44.1622 74.8809 45.1341 72.6619 45.1341C70.6719 45.1341 68.967 44.1655 67.752 42.9124C66.523 41.6466 65.853 40.1534 65.853 39.1813H65.114C65.114 40.4154 65.9169 42.0833 67.2209 43.4271C68.5369 44.7837 70.4219 45.8732 72.6619 45.8732C75.1219 45.8732 76.9229 44.787 78.0779 43.4071C79.2219 42.0417 79.7499 40.3673 79.6459 39.15L78.91 39.2127Z" fill="#1A1A1A"/>
<path fill-rule="evenodd" clip-rule="evenodd" d="M85.3519 25.9236H74.0959C66.0009 25.9236 59.439 19.3616 59.439 11.267V0H85.3519V25.9236ZM66.2949 8.6266C65.9109 9.0834 65.7589 9.6201 65.7869 9.9546L65.187 10.0059C65.142 9.4845 65.3669 8.7947 65.8329 8.2391C66.3089 7.6717 67.0519 7.2261 68.0599 7.2261C68.9839 7.2261 69.755 7.6744 70.288 8.2228C70.812 8.7607 71.153 9.4452 71.153 9.9802H70.5499C70.5499 9.6593 70.318 9.1174 69.856 8.6429C69.405 8.1789 68.7809 7.8288 68.0599 7.8288C67.2479 7.8288 66.6679 8.1816 66.2949 8.6266ZM75.025 9.9547C74.996 9.6198 75.148 9.0829 75.53 8.6261C75.902 8.1812 76.4789 7.8288 77.2869 7.8288C78.0039 7.8288 78.626 8.1785 79.075 8.6425C79.535 9.1169 79.7659 9.6589 79.7659 9.9802H80.369C80.369 9.4457 80.0289 8.7613 79.5079 8.2232C78.9769 7.6748 78.2079 7.2261 77.2869 7.2261C76.2819 7.2261 75.5419 7.6721 75.0679 8.2396C74.6029 8.7952 74.38 9.4848 74.424 10.0058L75.025 9.9547Z" fill="#22B34F"/>
<path fill-rule="evenodd" clip-rule="evenodd" d="M44.762 25.9238H33.505V51.8475H59.418V40.5805C59.418 32.4858 52.856 25.9238 44.762 25.9238ZM53.5 36.4648C53.5 37.8019 52.416 38.8858 51.08 38.8858C49.743 38.8858 48.66 37.8019 48.66 36.4648C48.66 35.1276 49.743 34.0437 51.08 34.0437C52.416 34.0437 53.5 35.1276 53.5 36.4648ZM44.369 36.4648C44.369 37.8019 43.286 38.8859 41.949 38.8859C40.613 38.8859 39.529 37.8019 39.529 36.4648C39.529 35.1276 40.613 34.0437 41.949 34.0437C43.286 34.0437 44.369 35.1276 44.369 36.4648Z" fill="#22B34F"/>
<path d="M0 80.2169V62.1174H11.984V65.2725H3.82703V69.5852H11.189V72.7402H3.82703V80.2169H0ZM30.195 71.1671C30.195 73.1409 29.821 74.8199 29.073 76.2049C28.33 77.5889 27.317 78.6469 26.032 79.3769C24.754 80.1019 23.316 80.4639 21.72 80.4639C20.111 80.4639 18.668 80.0989 17.389 79.3689C16.111 78.6379 15.1 77.5799 14.358 76.1959C13.616 74.8109 13.244 73.135 13.244 71.1671C13.244 69.1934 13.616 67.5143 14.358 66.1297C15.1 64.7451 16.111 63.6905 17.389 62.9658C18.668 62.2353 20.111 61.87 21.72 61.87C23.316 61.87 24.754 62.2353 26.032 62.9658C27.317 63.6905 28.33 64.7451 29.073 66.1297C29.821 67.5143 30.195 69.1934 30.195 71.1671ZM26.315 71.1671C26.315 69.8886 26.124 68.8104 25.741 67.9326C25.364 67.0547 24.831 66.3889 24.141 65.9353C23.452 65.4816 22.645 65.2548 21.72 65.2548C20.795 65.2548 19.988 65.4816 19.298 65.9353C18.609 66.3889 18.073 67.0547 17.69 67.9326C17.313 68.8104 17.124 69.8886 17.124 71.1671C17.124 72.4456 17.313 73.5238 17.69 74.4019C18.073 75.2799 18.609 75.9449 19.298 76.3989C19.988 76.8529 20.795 77.0799 21.72 77.0799C22.645 77.0799 23.452 76.8529 24.141 76.3989C24.831 75.9449 25.364 75.2799 25.741 74.4019C26.124 73.5238 26.315 72.4456 26.315 71.1671ZM41.853 67.3228C41.782 66.6099 41.479 66.0561 40.943 65.6613C40.406 65.2666 39.679 65.0692 38.76 65.0692C38.135 65.0692 37.608 65.1576 37.178 65.3343C36.748 65.5052 36.418 65.7438 36.188 66.0502C35.964 66.3565 35.852 66.7041 35.852 67.093C35.84 67.417 35.908 67.6998 36.055 67.9414C36.208 68.183 36.418 68.3921 36.683 68.5689C36.948 68.7397 37.254 68.89 37.602 69.0196C37.95 69.1433 38.321 69.2494 38.715 69.3378L40.342 69.7266C41.131 69.9034 41.856 70.139 42.516 70.4336C43.175 70.7282 43.747 71.0905 44.23 71.5206C44.713 71.9507 45.087 72.4574 45.352 73.0407C45.623 73.624 45.762 74.2929 45.768 75.0469C45.762 76.1549 45.479 77.1149 44.919 77.9279C44.366 78.7349 43.564 79.3629 42.516 79.8099C41.473 80.2519 40.215 80.4729 38.742 80.4729C37.281 80.4729 36.008 80.2489 34.924 79.8019C33.846 79.3539 33.003 78.6909 32.397 77.8129C31.796 76.9289 31.48 75.8359 31.451 74.5339H35.154C35.195 75.1409 35.369 75.6479 35.675 76.0539C35.988 76.4549 36.403 76.7589 36.921 76.9649C37.446 77.1649 38.038 77.2649 38.698 77.2649C39.346 77.2649 39.909 77.1709 40.386 76.9819C40.869 76.7939 41.243 76.5319 41.508 76.1959C41.773 75.8599 41.906 75.4739 41.906 75.0379C41.906 74.6319 41.785 74.2899 41.543 74.0128C41.308 73.7359 40.96 73.5003 40.501 73.3058C40.047 73.1114 39.49 72.9347 38.83 72.7756L36.86 72.2807C35.334 71.9095 34.129 71.3292 33.245 70.5397C32.361 69.7502 31.922 68.6867 31.928 67.3493C31.922 66.2534 32.214 65.296 32.803 64.4771C33.398 63.6581 34.214 63.0189 35.251 62.5593C36.288 62.0997 37.466 61.87 38.786 61.87C40.129 61.87 41.302 62.0997 42.304 62.5593C43.311 63.0189 44.095 63.6581 44.654 64.4771C45.214 65.296 45.503 66.2446 45.52 67.3228H41.853ZM57.165 67.3228C57.094 66.6099 56.791 66.0561 56.255 65.6613C55.718 65.2666 54.991 65.0692 54.072 65.0692C53.447 65.0692 52.92 65.1576 52.49 65.3343C52.06 65.5052 51.73 65.7438 51.5 66.0502C51.276 66.3565 51.164 66.7041 51.164 67.093C51.152 67.417 51.22 67.6998 51.367 67.9414C51.521 68.183 51.73 68.3921 51.995 68.5689C52.26 68.7397 52.566 68.89 52.914 69.0196C53.262 69.1433 53.633 69.2494 54.028 69.3378L55.654 69.7266C56.443 69.9034 57.168 70.139 57.828 70.4336C58.488 70.7282 59.059 71.0905 59.542 71.5206C60.025 71.9507 60.399 72.4574 60.665 73.0407C60.936 73.624 61.074 74.2929 61.08 75.0469C61.074 76.1549 60.791 77.1149 60.232 77.9279C59.678 78.7349 58.876 79.3629 57.828 79.8099C56.785 80.2519 55.527 80.4729 54.054 80.4729C52.593 80.4729 51.32 80.2489 50.236 79.8019C49.158 79.3539 48.316 78.6909 47.709 77.8129C47.108 76.9289 46.793 75.8359 46.763 74.5339H50.466C50.507 75.1409 50.681 75.6479 50.987 76.0539C51.3 76.4549 51.715 76.7589 52.234 76.9649C52.758 77.1649 53.35 77.2649 54.01 77.2649C54.658 77.2649 55.221 77.1709 55.698 76.9819C56.181 76.7939 56.555 76.5319 56.82 76.1959C57.085 75.8599 57.218 75.4739 57.218 75.0379C57.218 74.6319 57.097 74.2899 56.856 74.0128C56.62 73.7359 56.272 73.5003 55.813 73.3058C55.359 73.1114 54.802 72.9347 54.142 72.7756L52.172 72.2807C50.646 71.9095 49.441 71.3292 48.557 70.5397C47.673 69.7502 47.234 68.6867 47.24 67.3493C47.234 66.2534 47.526 65.296 48.115 64.4771C48.71 63.6581 49.526 63.0189 50.563 62.5593C51.6 62.0997 52.779 61.87 54.098 61.87C55.442 61.87 56.614 62.0997 57.616 62.5593C58.623 63.0189 59.407 63.6581 59.966 64.4771C60.526 65.296 60.815 66.2446 60.833 67.3228H57.165ZM83.392 68.454H79.522C79.451 67.9532 79.307 67.5084 79.089 67.1195C78.871 66.7248 78.591 66.3889 78.249 66.112C77.907 65.8351 77.513 65.623 77.065 65.4757C76.623 65.3284 76.143 65.2548 75.624 65.2548C74.687 65.2548 73.871 65.4875 73.176 65.9529C72.481 66.4125 71.942 67.0842 71.559 67.9679C71.176 68.8458 70.984 69.9122 70.984 71.1671C70.984 72.4574 71.176 73.5415 71.559 74.4189C71.948 75.2969 72.49 75.9599 73.185 76.4079C73.88 76.8559 74.684 77.0799 75.598 77.0799C76.11 77.0799 76.585 77.0119 77.021 76.8759C77.462 76.7409 77.854 76.5429 78.196 76.2839C78.538 76.0189 78.82 75.6979 79.044 75.3209C79.274 74.9439 79.433 74.5139 79.522 74.0305L83.392 74.0482C83.292 74.8789 83.042 75.6799 82.641 76.4519C82.247 77.2179 81.713 77.9039 81.042 78.5109C80.376 79.1119 79.581 79.5889 78.656 79.9429C77.736 80.2909 76.697 80.4639 75.536 80.4639C73.921 80.4639 72.478 80.0989 71.205 79.3689C69.939 78.6379 68.937 77.5799 68.201 76.1959C67.47 74.8109 67.105 73.135 67.105 71.1671C67.105 69.1934 67.476 67.5143 68.218 66.1297C68.961 64.7451 69.968 63.6905 71.241 62.9658C72.513 62.2353 73.945 61.87 75.536 61.87C76.585 61.87 77.557 62.0173 78.452 62.3119C79.354 62.6064 80.152 63.0365 80.847 63.6021C81.542 64.1619 82.108 64.8482 82.544 65.6613C82.986 66.4744 83.269 67.4053 83.392 68.454ZM88.835 62.1174V80.2169H85.07V62.1174H88.835ZM99.561 74.4369V66.6423H103.325V80.2169H99.711V77.7509H99.569C99.263 78.5469 98.753 79.1859 98.041 79.6689C97.334 80.1519 96.47 80.3939 95.451 80.3939C94.544 80.3939 93.745 80.1869 93.056 79.7749C92.367 79.3629 91.828 78.7759 91.439 78.0159C91.056 77.2559 90.861 76.3459 90.856 75.2859V66.6423H94.62V74.6139C94.626 75.4149 94.841 76.0489 95.266 76.5139C95.69 76.9789 96.258 77.2119 96.971 77.2119C97.425 77.2119 97.849 77.1089 98.244 76.9029C98.639 76.6909 98.957 76.3779 99.198 75.9659C99.446 75.5539 99.567 75.0439 99.561 74.4369ZM105.412 80.2169V62.1174H109.177V68.9224H109.292C109.457 68.5571 109.695 68.1859 110.008 67.8088C110.326 67.4259 110.738 67.1077 111.245 66.8544C111.757 66.5951 112.394 66.4655 113.154 66.4655C114.144 66.4655 115.057 66.7248 115.893 67.2432C116.73 67.7558 117.399 68.5306 117.9 69.5675C118.4 70.5986 118.651 71.8918 118.651 73.4472C118.651 74.9619 118.406 76.2399 117.917 77.2829C117.434 78.3199 116.774 79.1059 115.938 79.6429C115.107 80.1729 114.176 80.4379 113.145 80.4379C112.414 80.4379 111.793 80.3169 111.28 80.0759C110.774 79.8339 110.358 79.5309 110.034 79.1649C109.71 78.7939 109.463 78.4199 109.292 78.0429H109.124V80.2169H105.412ZM109.097 73.4296C109.097 74.2369 109.209 74.9409 109.433 75.5419C109.657 76.1429 109.981 76.6109 110.405 76.9469C110.83 77.2769 111.345 77.4419 111.952 77.4419C112.565 77.4419 113.083 77.2739 113.507 76.9379C113.932 76.5959 114.253 76.1249 114.471 75.5239C114.695 74.9169 114.806 74.2189 114.806 73.4296C114.806 72.646 114.697 71.9566 114.479 71.3616C114.261 70.7665 113.94 70.3011 113.516 69.9652C113.092 69.6294 112.571 69.4615 111.952 69.4615C111.339 69.4615 110.821 69.6235 110.397 69.9475C109.978 70.2716 109.657 70.7312 109.433 71.3262C109.209 71.9213 109.097 72.6224 109.097 73.4296Z" fill="#1A1A1A"/>
<path d="M44.5499 90.8988C44.4749 90.6598 44.372 90.4468 44.244 90.2578C44.118 90.0668 43.9679 89.9048 43.7919 89.7708C43.6169 89.6348 43.417 89.5318 43.191 89.4608C42.969 89.3898 42.724 89.3548 42.457 89.3548C42.004 89.3548 41.595 89.4718 41.231 89.7048C40.867 89.9378 40.5789 90.2788 40.3669 90.7298C40.1579 91.1778 40.053 91.7258 40.053 92.3758C40.053 93.0278 40.159 93.5788 40.371 94.0288C40.583 94.4798 40.874 94.8208 41.243 95.0538C41.612 95.2868 42.033 95.4038 42.504 95.4038C42.941 95.4038 43.322 95.3148 43.647 95.1368C43.974 94.9588 44.227 94.7068 44.405 94.3828C44.586 94.0548 44.676 93.6698 44.676 93.2278L44.9899 93.2868H42.689V92.2848H45.851V93.1998C45.851 93.8758 45.7069 94.4618 45.4189 94.9598C45.1329 95.4548 44.7379 95.8368 44.2319 96.1068C43.7299 96.3768 43.153 96.5118 42.504 96.5118C41.776 96.5118 41.137 96.3438 40.587 96.0088C40.04 95.6738 39.6129 95.1978 39.3069 94.5828C38.9999 93.9648 38.8469 93.2318 38.8469 92.3828C38.8469 91.7418 38.936 91.1658 39.114 90.6548C39.292 90.1438 39.5429 89.7108 39.8649 89.3548C40.1889 88.9958 40.5699 88.7228 41.0079 88.5338C41.4479 88.3428 41.928 88.2468 42.449 88.2468C42.884 88.2468 43.288 88.3118 43.663 88.4398C44.04 88.5678 44.375 88.7498 44.668 88.9858C44.964 89.2208 45.209 89.5018 45.403 89.8258C45.597 90.1478 45.728 90.5058 45.796 90.8988H44.5499ZM46.949 96.4018V88.3568H51.9919V89.4018H48.163V91.8528H51.7289V92.8938H48.163V95.3568H52.0389V96.4018H46.949ZM59.8519 90.9728H58.627C58.58 90.7108 58.492 90.4808 58.364 90.2818C58.235 90.0828 58.078 89.9138 57.892 89.7748C57.706 89.6358 57.4979 89.5318 57.2679 89.4608C57.0399 89.3898 56.798 89.3548 56.541 89.3548C56.078 89.3548 55.663 89.4718 55.296 89.7048C54.932 89.9378 54.6439 90.2788 54.4319 90.7298C54.2219 91.1798 54.118 91.7298 54.118 92.3788C54.118 93.0338 54.2219 93.5868 54.4319 94.0368C54.6439 94.4868 54.9329 94.8278 55.2999 95.0578C55.6659 95.2888 56.0789 95.4038 56.5369 95.4038C56.7909 95.4038 57.0319 95.3698 57.2599 95.3018C57.4899 95.2308 57.698 95.1278 57.884 94.9908C58.07 94.8548 58.227 94.6888 58.356 94.4928C58.487 94.2938 58.577 94.0658 58.627 93.8088L59.8519 93.8128C59.7869 94.2078 59.6599 94.5718 59.4709 94.9048C59.2849 95.2348 59.046 95.5198 58.752 95.7608C58.462 95.9998 58.1289 96.1838 57.7549 96.3148C57.3799 96.4458 56.9719 96.5118 56.5289 96.5118C55.8329 96.5118 55.2119 96.3468 54.6669 96.0168C54.1229 95.6838 53.693 95.2088 53.379 94.5908C53.068 93.9728 52.9119 93.2358 52.9119 92.3788C52.9119 91.5208 53.0689 90.7828 53.3829 90.1678C53.6969 89.5498 54.127 89.0758 54.671 88.7458C55.216 88.4138 55.8349 88.2468 56.5289 88.2468C56.9559 88.2468 57.354 88.3088 57.723 88.4318C58.095 88.5518 58.429 88.7298 58.725 88.9658C59.021 89.1988 59.2659 89.4848 59.4589 89.8218C59.6529 90.1578 59.7839 90.5408 59.8519 90.9728ZM65.249 90.4708C65.208 90.0988 65.035 89.8108 64.731 89.6058C64.427 89.3998 64.0449 89.2958 63.5839 89.2958C63.2539 89.2958 62.969 89.3478 62.728 89.4528C62.487 89.5548 62.3 89.6968 62.166 89.8768C62.035 90.0548 61.97 90.2578 61.97 90.4858C61.97 90.6768 62.014 90.8418 62.103 90.9808C62.195 91.1198 62.3139 91.2358 62.4609 91.3308C62.6099 91.4218 62.7699 91.4998 62.9399 91.5618C63.1099 91.6228 63.274 91.6718 63.431 91.7118L64.2159 91.9158C64.4729 91.9788 64.7359 92.0638 65.0059 92.1708C65.2759 92.2788 65.5259 92.4198 65.7559 92.5948C65.9869 92.7708 66.173 92.9878 66.314 93.2468C66.458 93.5068 66.53 93.8168 66.53 94.1778C66.53 94.6338 66.412 95.0388 66.176 95.3918C65.943 95.7458 65.6039 96.0238 65.1589 96.2288C64.7169 96.4328 64.181 96.5348 63.553 96.5348C62.95 96.5348 62.429 96.4388 61.989 96.2478C61.549 96.0568 61.2049 95.7858 60.9559 95.4348C60.7079 95.0818 60.5699 94.6628 60.5439 94.1778H61.762C61.785 94.4688 61.8789 94.7108 62.0439 94.9048C62.2119 95.0958 62.4249 95.2388 62.6849 95.3328C62.9459 95.4248 63.2329 95.4708 63.5449 95.4708C63.8879 95.4708 64.193 95.4168 64.46 95.3098C64.73 95.1998 64.9419 95.0478 65.0959 94.8538C65.2509 94.6578 65.3279 94.4278 65.3279 94.1668C65.3279 93.9278 65.26 93.7328 65.124 93.5808C64.99 93.4288 64.8079 93.3038 64.5779 93.2038C64.3499 93.1048 64.092 93.0168 63.804 92.9408L62.853 92.6818C62.209 92.5058 61.699 92.2488 61.322 91.9078C60.947 91.5678 60.7599 91.1168 60.7599 90.5568C60.7599 90.0928 60.886 89.6888 61.137 89.3428C61.388 88.9978 61.729 88.7288 62.158 88.5378C62.588 88.3438 63.0719 88.2468 63.6119 88.2468C64.1559 88.2468 64.637 88.3428 65.053 88.5338C65.472 88.7248 65.802 88.9878 66.043 89.3238C66.284 89.6558 66.4089 90.0378 66.4199 90.4708H65.249ZM67.538 96.4018V88.3568H68.752V92.1988H68.85L72.2239 88.3568H73.752L70.507 91.9788L73.7629 96.4018H72.3019L69.702 92.8078L68.752 93.8988V96.4018H67.538ZM74.4399 96.4018V88.3568H77.3079C77.9339 88.3568 78.452 88.4708 78.863 88.6988C79.274 88.9268 79.5819 89.2378 79.7859 89.6338C79.9899 90.0268 80.093 90.4688 80.093 90.9608C80.093 91.4558 79.9889 91.9018 79.7819 92.2968C79.5779 92.6898 79.269 93.0008 78.855 93.2318C78.444 93.4598 77.927 93.5728 77.304 93.5728H75.332V92.5438H77.194C77.589 92.5438 77.9099 92.4758 78.1559 92.3398C78.4019 92.2008 78.5829 92.0128 78.6979 91.7748C78.8129 91.5358 78.871 91.2648 78.871 90.9608C78.871 90.6578 78.8129 90.3878 78.6979 90.1518C78.5829 89.9168 78.401 89.7318 78.152 89.5988C77.906 89.4648 77.581 89.3978 77.178 89.3978H75.6539V96.4018H74.4399Z" fill="#1A1A1A"/>
</svg>
